<?xml version="1.0" encoding="UTF-8" standalone="no"?>
<svg
   xmlns:dc="http://purl.org/dc/elements/1.1/"
   xmlns:cc="http://creativecommons.org/ns#"
   xmlns:rdf="http://www.w3.org/1999/02/22-rdf-syntax-ns#"
   xmlns:svg="http://www.w3.org/2000/svg"
   xmlns="http://www.w3.org/2000/svg"
   xmlns:sodipodi="http://sodipodi.sourceforge.net/DTD/sodipodi-0.dtd"
   xmlns:inkscape="http://www.inkscape.org/namespaces/inkscape"
   width="1023.9999"
   height="1023.9999"
   viewBox="0 0 270.93331 270.93332"
   version="1.1"
   id="svg8"
   inkscape:version="1.0rc1 (09960d6f05, 2020-04-09)"
   sodipodi:docname="siteicon.svg"
   inkscape:export-filename="C:\Users\asarver\Google Drive\1. Sarver Enterprises, LLC\2. Companies\Sudo How\Logo\siteicon.png"
   inkscape:export-xdpi="96"
   inkscape:export-ydpi="96">
  <defs
     id="defs2">
    <rect
       x="-59.720238"
       y="96.005951"
       width="444.5"
       height="117.92858"
       id="rect12" />
  </defs>
  <sodipodi:namedview
     id="base"
     pagecolor="#ffffff"
     bordercolor="#666666"
     borderopacity="1.0"
     inkscape:pageopacity="0.0"
     inkscape:pageshadow="2"
     inkscape:zoom="0.45254834"
     inkscape:cx="218.77953"
     inkscape:cy="612.36458"
     inkscape:document-units="mm"
     inkscape:current-layer="text25"
     inkscape:document-rotation="0"
     showgrid="false"
     inkscape:pagecheckerboard="true"
     showborder="false"
     inkscape:showpageshadow="false"
     inkscape:window-width="1680"
     inkscape:window-height="997"
     inkscape:window-x="1272"
     inkscape:window-y="1"
     inkscape:window-maximized="1"
     fit-margin-top="0"
     fit-margin-left="0"
     fit-margin-right="0"
     fit-margin-bottom="0"
     units="px" />
  <metadata
     id="metadata5">
    <rdf:RDF>
      <cc:Work
         rdf:about="">
        <dc:format>image/svg+xml</dc:format>
        <dc:type
           rdf:resource="http://purl.org/dc/dcmitype/StillImage" />
        <dc:title />
      </cc:Work>
    </rdf:RDF>
  </metadata>
  <g
     inkscape:label="Layer 2"
     id="layer2"
     inkscape:groupmode="layer"
     transform="translate(-444.50819,93.238079)">
    <circle
       inkscape:export-ydpi="96"
       inkscape:export-xdpi="96"
       r="135.46666"
       style="fill:#363636;fill-opacity:1;stroke-width:0.264582"
       cy="42.22858"
       cx="579.97485"
       id="path79" />
  </g>
  <g
     inkscape:label="Layer 1"
     inkscape:groupmode="layer"
     id="layer1"
     transform="translate(-104.12958,44.199532)">
    <g
       style="font-style:normal;font-weight:normal;font-size:43.0306px;line-height:1.25;font-family:sans-serif;fill:#000000;fill-opacity:1;stroke:none;stroke-width:1.07577"
       id="text25"
       aria-label="&gt;$">
      <g
         transform="translate(-3.4396015)"
         id="g26">
        <path
           inkscape:connector-curvature="0"
           id="path17"
           style="font-style:normal;font-variant:normal;font-weight:900;font-stretch:semi-expanded;font-size:229.461px;line-height:1.25;font-family:Inconsolata;-inkscape-font-specification:'Inconsolata Heavy Semi-Expanded';fill:#ffffff;fill-opacity:1;stroke:none;stroke-width:1.28566"
           d="M 133.46591,153.79524 V 124.65371 L 206.66397,86.792638 133.92483,54.438637 V 25.756012 l 109.91182,52.546569 v 16.521192 z" />
        <path
           inkscape:connector-curvature="0"
           id="path19"
           style="font-style:normal;font-variant:normal;font-weight:900;font-stretch:semi-expanded;font-size:229.461px;line-height:1.25;font-family:Inconsolata;-inkscape-font-specification:'Inconsolata Heavy Semi-Expanded';fill:#ffffff;fill-opacity:1;stroke:none;stroke-width:1.28566"
           d="m 290.19239,171.00482 v -11.93197 q -7.80167,-0.68839 -16.29173,-2.75353 -8.49006,-2.29461 -16.29173,-5.96599 -7.57221,-3.90084 -13.5382,-9.17844 l 13.5382,-24.09341 q 3.21245,1.14731 3.44192,3.44192 0.45892,2.29461 2.75353,4.35976 2.98299,2.52407 7.11329,4.58922 4.35976,1.83569 8.94898,3.21245 4.58922,1.14731 9.17844,2.06515 v -34.41914 q -13.07928,-4.818684 -22.48718,-10.325748 -9.4079,-5.736525 -14.45604,-13.079277 -5.04815,-7.572213 -5.04815,-17.668497 0,-9.637362 5.73653,-16.750653 5.96599,-7.342752 15.83281,-11.702511 9.86682,-4.58922 21.56933,-5.965986 V 11.52943 h 19.96311 q 0.68838,0.229461 0.91784,0.917844 0.22946,0.458922 0.22946,1.147305 0,0.688383 -0.68838,2.753532 -0.68838,1.835688 -0.68838,4.130298 v 4.130298 q 7.11329,0.917844 14.22658,3.441915 7.11329,2.29461 13.30874,5.965986 6.42491,3.671376 11.24359,8.948979 l -13.30874,18.127419 q -3.21245,0 -3.90084,-2.29461 -0.68838,-2.29461 -2.06515,-2.982993 -1.37676,-1.376766 -3.67137,-2.524071 -2.06515,-1.147305 -4.58922,-1.835688 -2.52407,-0.917844 -5.27761,-1.376766 -2.52407,-0.688383 -5.04814,-0.917844 v 29.82993 q 14.68551,5.048142 23.86395,10.325745 9.17844,5.277603 13.53819,12.390901 4.35976,6.88383 4.35976,16.9801 0,9.63736 -5.2776,18.35688 -5.2776,8.71952 -14.91496,14.68551 -9.63737,5.73652 -22.48718,7.34275 v 11.93197 z m 20.65149,-36.48429 q 4.58922,-0.68838 7.80168,-2.98299 3.44191,-2.29461 5.2776,-5.27761 2.06515,-2.98299 2.06515,-6.19544 0,-3.44192 -2.06515,-5.96599 -1.83569,-2.75353 -5.2776,-4.81868 -3.21246,-2.29461 -7.80168,-3.67138 z M 289.04509,72.107134 V 48.931573 q -3.21246,0.458922 -6.65437,1.606227 -3.44192,1.147305 -5.73653,3.212454 -2.29461,1.835688 -2.29461,5.048142 0,2.524071 1.83569,5.048142 2.06515,2.524071 5.2776,4.58922 3.44192,2.065149 7.57222,3.671376 z" />
      </g>
    </g>
  </g>
</svg>
